<svg xmlns="http://www.w3.org/2000/svg" version="1.0" width="626.000000pt" height="626.000000pt" viewBox="0 0 626.000000 626.000000" preserveAspectRatio="xMidYMid meet">

<g transform="translate(0.000000,626.000000) scale(0.100000,-0.100000)" fill="#000000" stroke="none">
<path d="M3467 5172 c-8 -130 -62 -205 -155 -217 -26 -4 -53 -8 -60 -11 -24 -7 -1 -24 33 -24 47 0 75 -13 112 -50 36 -37 63 -106 63 -161 0 -89 25 -92 33 -4 13 136 89 225 193 225 15 0 24 6 24 15 0 11 -12 15 -44 15 -86 0 -153 78 -162 187 -11 128 -29 140 -37 25z m36 -135 c8 -18 31 -47 52 -66 36 -31 37 -34 19 -44 -30 -17 -74 -67 -80 -93 -9 -34 -21 -30 -44 15 -11 22 -33 49 -50 61 l-31 22 42 36 c23 20 48 51 55 69 8 18 16 33 19 33 3 0 11 -15 18 -33z"/>
<path d="M2629 4622 c-81 -27 -209 -117 -209 -147 0 -8 26 -14 68 -18 92 -8 153 -31 207 -79 127 -112 115 -259 -34 -420 -70 -75 -67 -86 15 -73 164 24 295 119 361 261 40 84 40 194 1 277 -33 69 -115 154 -181 186 -66 32 -155 37 -228 13z m220 -42 c57 -29 132 -106 162 -167 36 -72 34 -187 -4 -264 -34 -71 -110 -147 -185 -187 -54 -29 -141 -56 -150 -47 -3 2 15 26 38 52 69 77 95 143 95 238 0 74 -3 85 -33 132 -50 78 -136 128 -255 148 -38 6 -38 7 -22 26 24 25 100 69 150 86 56 18 151 11 204 -17z"/>
<path d="M1838 4175 c-7 -61 -30 -93 -73 -101 -41 -7 -42 -27 -2 -32 36 -4 63 -42 71 -97 9 -59 22 -57 30 4 5 39 13 55 37 75 17 14 40 26 51 26 29 0 16 24 -15 28 -33 4 -67 46 -67 83 0 68 -25 79 -32 14z m33 -132 c-18 -25 -29 -25 -45 0 -8 12 -5 21 9 36 17 20 19 20 35 4 16 -17 16 -20 1 -40z"/>
<path d="M4580 4133 c0 -96 -45 -160 -119 -170 -51 -7 -49 -26 3 -34 64 -10 98 -57 111 -151 3 -27 10 -48 14 -48 5 0 11 26 15 58 4 32 15 72 26 90 21 33 72 62 111 62 33 0 17 24 -18 26 -66 3 -103 50 -113 143 -6 64 -30 83 -30 24z m45 -147 l30 -34 -35 -41 -36 -41 -17 30 c-10 16 -22 30 -28 30 -15 0 -10 27 6 34 8 3 20 17 27 31 6 14 14 25 16 25 3 0 20 -15 37 -34z"/>
<path d="M3563 3850 c-16 -9 -73 -67 -126 -129 -83 -94 -109 -117 -166 -145 -131 -66 -207 -140 -313 -301 -18 -27 -45 -56 -60 -63 -35 -17 -109 -5 -298 48 -557 156 -656 179 -840 201 -167 19 -286 8 -429 -40 -342 -114 -539 -266 -665 -511 -39 -75 -135 -325 -180 -465 -90 -280 -61 -590 75 -823 46 -77 199 -228 279 -275 110 -63 309 -120 575 -162 159 -26 496 -31 635 -11 239 36 388 114 441 232 32 71 43 178 26 259 -8 39 -13 72 -12 73 2 2 23 -7 47 -21 93 -54 178 -77 428 -117 179 -29 233 -50 373 -144 67 -45 149 -99 182 -118 66 -40 180 -82 196 -73 5 4 32 -14 60 -39 28 -25 95 -76 151 -113 98 -66 102 -68 162 -67 123 2 341 96 564 244 489 324 1098 956 1152 1197 11 49 -8 94 -52 121 -19 12 -115 44 -214 71 -274 76 -338 109 -537 280 -413 354 -868 610 -1208 680 l-55 12 -33 68 c-37 78 -82 136 -110 144 -11 2 -32 -3 -48 -13z m73 -42 c31 -37 92 -164 119 -248 21 -66 31 -80 57 -80 30 0 155 -55 254 -111 125 -72 279 -186 345 -256 l56 -60 104 -8 c122 -8 159 -23 159 -63 0 -35 -36 -112 -100 -211 -42 -65 -55 -96 -70 -168 -17 -84 -63 -217 -82 -238 -5 -5 -57 -10 -116 -10 -59 -1 -117 -4 -129 -9 -49 -16 -18 -24 91 -23 63 1 117 -1 121 -5 8 -8 -54 -118 -66 -118 -3 0 -30 13 -60 30 -53 29 -109 40 -109 20 0 -5 17 -14 38 -19 20 -6 54 -22 75 -36 l37 -26 -25 -33 c-35 -46 -128 -117 -201 -154 -97 -49 -167 -66 -279 -66 -100 0 -101 1 -227 56 -205 91 -307 166 -430 316 -59 71 -95 90 -61 30 30 -51 172 -196 237 -242 66 -47 164 -99 266 -140 101 -41 192 -100 259 -167 108 -110 141 -178 108 -224 -12 -16 -18 -16 -47 -6 -27 9 -38 8 -58 -5 -21 -14 -23 -21 -18 -59 6 -37 4 -45 -14 -58 -16 -11 -29 -12 -59 -4 -53 14 -73 -1 -65 -52 4 -28 1 -40 -14 -54 -17 -16 -22 -16 -63 -2 -60 22 -131 63 -286 166 -158 106 -214 127 -438 163 -88 15 -191 36 -230 47 -195 58 -344 185 -401 344 -12 33 -26 58 -30 55 -15 -8 -5 -51 27 -119 16 -35 29 -65 29 -66 0 -2 -24 6 -52 18 -47 19 -78 22 -259 25 l-206 4 9 41 c5 23 8 85 6 137 -3 79 -8 105 -31 151 -26 53 -123 159 -146 159 -23 0 -9 -23 42 -70 79 -72 111 -148 110 -260 0 -47 -6 -103 -14 -124 -13 -38 -17 -40 -78 -52 -35 -8 -98 -25 -140 -39 -224 -74 -433 -74 -570 1 -123 67 -227 184 -273 309 -19 50 -22 81 -22 178 0 85 -4 117 -12 117 -17 0 -28 -98 -20 -181 17 -185 144 -367 318 -454 95 -47 160 -58 308 -52 97 4 144 11 210 31 224 70 211 68 442 73 199 5 223 3 285 -15 173 -53 247 -148 246 -317 0 -136 -37 -207 -143 -275 -182 -116 -589 -144 -1020 -70 -146 25 -290 61 -369 93 -239 96 -407 298 -473 564 -27 112 -29 308 -4 428 34 162 165 513 237 636 49 84 160 204 244 264 87 63 223 128 365 177 l125 43 165 -1 c227 0 364 -27 857 -170 123 -35 261 -71 308 -79 123 -21 145 -10 222 110 75 116 174 206 299 268 35 18 75 52 120 104 80 90 163 173 174 173 5 0 21 -15 36 -32z m294 -234 c347 -111 749 -355 1105 -669 146 -129 257 -184 502 -251 188 -52 239 -73 255 -109 36 -79 -132 -322 -442 -639 -413 -422 -835 -723 -1138 -812 -126 -37 -150 -32 -269 54 -167 120 -168 121 -168 186 l0 56 51 -6 c45 -6 55 -3 74 16 18 18 21 29 16 65 -8 49 3 62 35 45 46 -25 99 20 99 86 0 21 3 25 18 19 69 -31 122 -8 122 53 0 27 3 33 16 28 49 -19 63 -18 90 9 20 21 25 33 20 55 -7 37 7 45 45 30 27 -11 32 -10 54 10 48 45 29 122 -53 226 l-39 50 32 37 32 37 83 -86 c53 -55 86 -82 92 -76 11 11 -98 144 -132 162 -11 6 -20 15 -20 21 0 5 19 41 42 80 37 62 44 69 67 65 80 -15 100 -16 106 -6 8 12 -36 30 -75 30 -16 0 -31 4 -34 8 -3 4 10 48 29 98 19 49 39 121 46 159 10 54 24 87 61 143 60 93 96 168 104 220 5 35 3 44 -18 65 -26 26 -51 32 -180 42 -71 6 -80 9 -106 38 -54 62 -138 131 -242 200 -115 76 -301 172 -367 189 -38 9 -43 15 -57 56 -9 25 -16 47 -16 49 0 11 66 -2 160 -33z m411 -1571 c58 -78 69 -101 69 -136 0 -46 -18 -60 -57 -45 -42 16 -63 -2 -63 -52 0 -51 -19 -65 -63 -49 -50 18 -67 7 -67 -40 0 -29 -5 -43 -19 -51 -31 -16 -113 34 -169 104 -26 33 -71 79 -100 103 -29 24 -51 43 -50 44 2 0 35 2 73 5 123 8 245 53 350 128 27 20 52 36 55 36 3 0 22 -21 41 -47z"/>
<path d="M3555 3688 c-31 -17 -105 -91 -105 -105 0 -24 18 -14 69 37 71 71 89 66 120 -35 19 -62 37 -73 34 -20 -4 62 -54 136 -90 135 -4 0 -17 -6 -28 -12z"/>
<path d="M3371 3441 c-27 -17 -2 -28 51 -20 29 4 61 8 71 8 9 1 17 6 17 11 0 12 -120 13 -139 1z"/>
<path d="M3630 3415 c0 -11 12 -15 45 -15 25 0 61 -6 80 -14 35 -15 62 -3 34 15 -46 29 -159 39 -159 14z"/>
<path d="M3902 3350 c2 -6 20 -18 40 -24 19 -7 51 -22 70 -34 41 -26 48 -27 48 -8 0 8 -20 26 -45 41 -53 30 -120 46 -113 25z"/>
<path d="M1597 3343 c-10 -3 -16 -10 -14 -16 3 -9 146 -12 155 -2 20 20 -83 33 -141 18z"/>
<path d="M1860 3318 c0 -12 19 -17 77 -22 42 -4 89 -10 106 -13 22 -5 29 -3 25 7 -6 18 -40 27 -133 35 -63 6 -75 5 -75 -7z"/>
<path d="M3587 3303 c-14 -13 -6 -21 31 -26 20 -3 47 -9 60 -13 16 -5 22 -2 22 9 0 23 -96 48 -113 30z"/>
<path d="M1319 3254 c-46 -14 -78 -39 -65 -51 3 -4 21 0 39 9 17 8 47 19 65 22 18 4 32 14 32 22 0 17 -11 17 -71 -2z"/>
<path d="M1468 3238 c-21 -6 -38 -16 -38 -24 0 -16 7 -17 46 -5 16 5 46 12 67 16 20 3 37 10 37 15 0 12 -63 11 -112 -2z"/>
<path d="M1712 3238 c3 -8 26 -14 62 -16 44 -2 57 0 54 10 -3 8 -26 14 -62 16 -44 2 -57 0 -54 -10z"/>
<path d="M2316 3221 c-4 -6 -1 -13 6 -15 7 -2 40 -10 73 -18 33 -8 66 -17 74 -19 7 -2 15 1 18 7 9 25 -157 68 -171 45z"/>
<path d="M2122 3209 c5 -15 94 -36 105 -25 13 12 -13 26 -61 32 -39 6 -48 4 -44 -7z"/>
<path d="M4190 3196 c0 -8 9 -18 20 -21 12 -4 52 -38 89 -76 38 -38 72 -69 75 -69 32 0 -49 102 -119 150 -48 33 -65 37 -65 16z"/>
<path d="M1082 3143 c-34 -20 -62 -43 -62 -50 0 -20 18 -16 65 17 24 16 55 34 69 40 14 5 26 14 26 20 0 19 -36 10 -98 -27z"/>
<path d="M1445 3135 c-5 -2 -22 -6 -37 -9 -51 -11 -32 -29 22 -22 59 8 80 15 80 27 0 9 -44 11 -65 4z"/>
<path d="M2980 3114 c0 -25 77 -129 129 -172 61 -51 156 -112 176 -112 29 0 14 17 -47 55 -78 48 -182 146 -215 203 -26 43 -43 54 -43 26z"/>
<path d="M1188 3084 c-46 -23 -55 -34 -42 -47 10 -9 114 46 114 60 0 19 -19 15 -72 -13z"/>
<path d="M952 2968 c-40 -31 -55 -58 -31 -58 16 0 89 63 89 78 0 19 -13 15 -58 -20z"/>
<path d="M4578 2993 c-27 -7 -21 -21 10 -25 23 -3 27 -7 26 -34 -1 -17 -13 -49 -28 -72 -29 -47 -32 -62 -12 -62 19 0 76 112 76 149 0 25 -6 34 -26 41 -14 6 -26 9 -27 9 -1 -1 -10 -3 -19 -6z"/>
<path d="M3650 2855 c0 -25 28 -72 52 -89 31 -22 66 -20 107 5 44 27 28 48 -17 22 -42 -24 -81 -10 -105 40 -19 38 -37 49 -37 22z"/>
<path d="M902 2816 c-42 -45 -92 -133 -92 -161 0 -30 18 -14 44 39 14 29 45 75 67 100 56 64 38 84 -19 22z"/>
<path d="M2937 2823 c-15 -15 -4 -21 47 -25 36 -3 83 -19 141 -46 48 -23 91 -42 96 -42 24 0 4 22 -43 50 -86 49 -220 85 -241 63z"/>
<path d="M3470 2710 c0 -5 5 -10 10 -10 6 0 10 5 10 10 0 6 -4 10 -10 10 -5 0 -10 -4 -10 -10z"/>
<path d="M3350 2700 c0 -5 4 -10 9 -10 6 0 13 5 16 10 3 6 -1 10 -9 10 -9 0 -16 -4 -16 -10z"/>
<path d="M4024 2658 c8 -43 57 -88 96 -88 35 0 82 20 78 32 -4 11 -4 11 -49 3 -47 -9 -77 7 -95 51 -19 44 -39 45 -30 2z"/>
<path d="M3763 2560 c-51 -20 -56 -104 -9 -164 23 -30 24 -35 10 -55 -20 -28 -66 -51 -103 -51 -43 0 -92 46 -100 94 -8 47 -26 43 -25 -7 2 -84 118 -145 194 -102 34 19 40 18 40 -4 0 -28 46 -79 79 -86 30 -6 81 9 81 24 0 5 -20 9 -44 8 -55 -2 -86 22 -86 69 0 57 7 64 67 64 47 0 59 4 84 29 16 16 29 36 29 45 0 25 -55 80 -107 108 -62 33 -83 39 -110 28z m110 -63 c27 -16 56 -41 65 -55 15 -23 15 -26 -8 -44 -18 -15 -36 -18 -79 -16 -50 3 -57 6 -78 37 -28 41 -30 96 -5 110 22 13 46 6 105 -32z"/>
<path d="M3367 2554 c-8 -8 1 -24 14 -24 5 0 9 7 9 15 0 15 -12 20 -23 9z"/>
<path d="M4095 2391 c-6 -11 9 -23 19 -14 9 9 7 23 -3 23 -6 0 -12 -4 -16 -9z"/>
<path d="M4042 2219 c2 -6 8 -10 13 -10 5 0 11 4 13 10 2 6 -4 11 -13 11 -9 0 -15 -5 -13 -11z"/>
<path d="M4150 2205 c0 -8 5 -15 10 -15 6 0 10 7 10 15 0 8 -4 15 -10 15 -5 0 -10 -7 -10 -15z"/>
<path d="M2480 1895 c0 -14 110 -95 129 -95 24 0 8 28 -27 48 -21 11 -46 30 -57 42 -21 23 -45 26 -45 5z"/>
<path d="M2640 1901 c0 -26 116 -99 132 -83 6 6 -13 24 -52 51 -63 42 -80 48 -80 32z"/>
<path d="M2702 1773 c3 -19 52 -47 101 -58 21 -6 27 -4 27 9 0 9 -6 16 -13 16 -8 0 -36 11 -63 25 -58 30 -56 29 -52 8z"/>
<path d="M3086 1781 c-13 -21 88 -61 107 -42 7 7 5 12 -9 17 -10 4 -34 13 -53 20 -40 17 -38 16 -45 5z"/>
<path d="M2900 1737 c0 -17 80 -46 149 -54 44 -5 53 -3 49 8 -3 8 -26 17 -57 21 -28 5 -68 15 -87 23 -45 18 -54 19 -54 2z"/>
<path d="M3172 1661 c4 -14 140 -81 151 -74 14 9 -16 35 -68 59 -52 25 -89 31 -83 15z"/>
<path d="M870 1465 c0 -31 141 -98 162 -77 7 7 -9 20 -54 40 -36 16 -68 35 -72 41 -10 16 -36 14 -36 -4z"/>
<path d="M2113 1459 c-52 -24 -57 -44 -9 -36 40 6 88 35 80 48 -7 13 -23 10 -71 -12z"/>
<path d="M2225 1394 c-27 -13 -55 -24 -62 -24 -15 0 -26 -17 -18 -30 6 -9 108 23 133 43 13 10 17 37 5 36 -5 0 -30 -11 -58 -25z"/>
<path d="M1765 1391 c-13 -23 9 -31 81 -31 59 0 74 3 74 15 0 12 -13 15 -59 15 -33 0 -66 3 -74 6 -8 3 -18 1 -22 -5z"/>
<path d="M1995 1320 c-16 -4 -54 -8 -82 -9 -42 -1 -53 -4 -53 -17 0 -14 11 -16 79 -12 76 4 117 20 105 39 -6 10 -6 10 -49 -1z"/>
<path d="M5453 2311 c-214 -85 -507 -290 -808 -568 -238 -218 -455 -470 -455 -525 0 -29 13 -21 38 22 82 145 448 510 737 735 192 150 407 280 539 325 50 17 73 40 39 40 -10 -1 -50 -13 -90 -29z"/>
</g>
</svg>